<svg width="104" height="82" viewBox="0 0 104 82" fill="none" xmlns="http://www.w3.org/2000/svg">
<path d="M7.05391 81.4C2.85391 69.4 0.753907 57.5 0.753907 45.7C0.753907 32.1 4.35391 21.2 11.5539 13C18.7539 4.59999 29.2539 0.39998 43.0539 0.39998V19.3C32.4539 19.3 27.1539 26.1 27.1539 39.7V44.2H46.3539V81.4H7.05391ZM63.7539 81.4C59.7539 69.2 57.7539 57.3 57.7539 45.7C57.7539 32.1 61.2539 21.2 68.2539 13C75.4539 4.59999 85.9539 0.39998 99.7539 0.39998V19.3C89.3539 19.3 84.1539 26.1 84.1539 39.7V44.2H103.054V81.4H63.7539Z" fill="#F4F2F2"/>
</svg>
