<svg width="203" height="26" viewBox="0 0 203 26" fill="none" xmlns="http://www.w3.org/2000/svg">
<path d="M101.158 22.2786H94.3685V4.12708H101.158V22.2786ZM95.0316 21.6155H100.495V4.79012H95.0316V21.6155ZM110.605 22.2786H103.952V4.12708H117.852C119.843 3.96583 121.826 4.52486 123.44 5.70247C124.135 6.33808 124.674 7.12561 125.014 8.00362C125.354 8.88163 125.487 9.82638 125.402 10.7641C125.501 12.3846 124.985 13.9828 123.958 15.2397C122.741 16.6347 120.718 17.3535 117.944 17.3787C117.245 17.3972 112.008 17.3787 110.609 17.3787L110.605 22.2786ZM104.611 21.6155H109.942V16.709H110.275C110.343 16.709 117.141 16.7302 117.928 16.709C120.512 16.6864 122.37 16.0459 123.456 14.7954C124.371 13.6583 124.825 12.2191 124.729 10.7628C124.811 9.92257 124.698 9.07483 124.399 8.28534C124.1 7.49586 123.623 6.78584 123.005 6.21036C121.509 5.13636 119.678 4.63222 117.843 4.7888H104.615L104.611 21.6155ZM116.444 13.3009H109.897V8.35995H116.488C116.955 8.29539 117.431 8.34992 117.871 8.51846C118.312 8.687 118.702 8.96409 119.007 9.32401C119.284 9.78409 119.414 10.3172 119.381 10.853C119.406 11.3504 119.299 11.8455 119.07 12.2878C118.755 12.6669 118.348 12.9588 117.889 13.1353C117.429 13.3118 116.931 13.367 116.444 13.2956V13.3009ZM110.56 12.6379H116.444C117.531 12.6379 118.205 12.4111 118.503 11.9444C118.668 11.6051 118.742 11.2293 118.719 10.853C118.749 10.4579 118.663 10.0628 118.473 9.71521L118.465 9.70327C118.149 9.23914 117.522 9.02299 116.488 9.02299H110.56V12.6379ZM137.502 22.5464C131.548 22.5464 127.994 21.0678 126.64 18.0271C126.419 17.4398 126.268 16.8281 126.192 16.2051L126.134 15.8232H133.218L133.264 16.1016C133.318 16.3844 133.439 16.6505 133.614 16.8787C133.894 17.2169 134.827 17.7844 137.925 17.7844C141.649 17.7844 141.649 17.1307 141.649 16.7793C141.649 16.1865 141.218 15.9836 138.181 15.6601L137.604 15.6057C136.461 15.4983 135.016 15.3617 134.355 15.3047C128.786 14.8008 126.299 13.0702 126.299 9.69532C126.299 6.15069 130.531 3.86053 137.08 3.86053C142.423 3.86053 145.866 5.26884 147.31 8.04964C147.652 8.69648 147.883 9.39693 147.99 10.121L148.037 10.4936H140.945L140.916 10.1939C140.888 9.95971 140.788 9.73999 140.629 9.56536C140.364 9.20997 139.526 8.62251 136.924 8.62251C133.729 8.62251 133.289 9.03095 133.289 9.47121C133.289 10.0587 134.298 10.2669 137.533 10.613C138.881 10.723 141.049 10.9458 141.792 11.036C146.461 11.5426 148.544 13.2307 148.544 16.5114C148.546 19.263 146.63 22.5464 137.502 22.5464ZM126.908 16.4862C126.974 16.9236 127.089 17.3521 127.249 17.7646C128.482 20.5348 131.837 21.8834 137.502 21.8834C142.239 21.8834 147.887 20.9551 147.887 16.5114C147.887 13.6033 146.043 12.1632 141.722 11.6951C140.979 11.6049 138.824 11.3834 137.478 11.272C134.03 10.8981 132.629 10.6992 132.629 9.47121C132.629 8.20082 134.139 7.95947 136.927 7.95947C139.129 7.95947 140.552 8.3573 141.156 9.15958C141.32 9.35723 141.445 9.58519 141.522 9.83058H147.269C147.153 9.31771 146.97 8.82234 146.725 8.3573C145.399 5.81253 142.159 4.52358 137.083 4.52358C130.937 4.52358 126.965 6.55382 126.965 9.69532C126.965 12.6923 129.194 14.1722 134.416 14.6443C135.079 14.7013 136.524 14.8379 137.669 14.9466L138.25 15.001C141.071 15.298 142.315 15.4837 142.315 16.7793C142.315 18.1743 140.706 18.4475 137.928 18.4475C135.358 18.4475 133.735 18.0616 133.108 17.3018C132.914 17.0595 132.768 16.7827 132.678 16.4862H126.908ZM161.142 22.5239C154.22 22.5239 150.401 19.7245 150.401 14.6403V4.12708H157.1V14.6403C157.1 16.3841 158.661 17.384 161.381 17.384C163.98 17.384 165.594 16.3403 165.594 14.6628V4.12708H172.224V15.1973C172.231 19.8531 168.188 22.5239 161.138 22.5239H161.142ZM151.064 4.79012V14.6403C151.064 20.9233 157.374 21.8608 161.142 21.8608C165.038 21.8608 171.572 20.9949 171.572 15.1973V4.79012H166.268V14.6628C166.268 16.7183 164.353 18.047 161.392 18.047C158.297 18.047 156.448 16.774 156.448 14.6403V4.79012H151.064ZM200.322 22.2786H193.999V14.0833L190.413 22.2786H184.898L181.349 14.0993V22.2786H175.004V4.12708H183.35L187.687 14.1351L192.232 4.12708H200.33L200.322 22.2786ZM194.662 21.6155H199.659V4.79012H192.654L187.665 15.7688L182.91 4.79012H175.662V21.6155H180.681V10.9087L185.322 21.6195H189.963L194.654 10.9246L194.662 21.6155ZM8.81073 4.4586H2.77173V21.947H19.4592V17.2911H8.81073V4.4586ZM31.6486 4.06077C23.9401 4.06077 19.8862 7.71414 19.8862 13.0782C19.8862 19.1384 24.1416 22.2123 31.6486 22.2123C39.9128 22.2123 43.3885 18.6477 43.3885 13.0782C43.3885 7.4224 39.4672 4.05812 31.6486 4.05812V4.06077ZM31.6261 8.60527C32.1508 8.60281 32.6753 8.63336 33.1961 8.69677L26.445 15.4479C26.1256 14.7253 25.9698 13.9409 25.9889 13.1511C25.9889 10.4074 27.3706 8.60262 31.6261 8.60262V8.60527ZM31.6486 17.7394C31.143 17.7416 30.6377 17.7132 30.1355 17.6545L36.8986 10.8914C37.2061 11.6021 37.3533 12.3718 37.3296 13.1458C37.3296 15.8152 36.0565 17.7367 31.6486 17.7367V17.7394ZM55.3537 15.3524H61.5691C61.4776 15.7838 61.2869 16.1878 61.0121 16.5326C59.7236 17.5824 58.0791 18.0932 56.4226 17.9582C55.5887 18.0474 54.7456 17.9563 53.9501 17.6911C53.1545 17.426 52.4252 16.9929 51.8118 16.4212C51.1833 15.4995 50.8848 14.3925 50.9644 13.2797C50.8627 12.1138 51.1873 10.9505 51.8781 10.0056C52.7466 9.02432 54.2173 8.6013 56.3788 8.6013C57.7541 8.48742 59.1276 8.84063 60.2775 9.60382C60.6399 9.89169 60.9108 10.2787 61.0572 10.7177H66.8217C66.7798 9.99431 66.6058 9.28467 66.3085 8.62384C64.9281 5.81651 61.7189 4.14564 56.2621 4.14564C51.516 4.14564 48.3308 5.59373 46.5711 7.7778C45.4089 9.35499 44.8123 11.2779 44.8776 13.236C44.8025 15.2384 45.3837 17.2104 46.5326 18.8519C48.2711 21.1063 51.3675 22.2149 55.0885 22.2149C57.5623 22.3874 60.0193 21.6945 62.0385 20.2549L62.195 21.947H66.9835V11.5876H55.3537V15.3524ZM80.5746 4.0568C72.8674 4.0568 68.8122 7.71017 68.8122 13.0742C68.8122 19.1344 73.0663 22.2083 80.5746 22.2083C88.8401 22.2083 92.3158 18.6438 92.3158 13.0742C92.3158 7.4224 88.3945 4.05812 80.5746 4.05812V4.0568ZM80.5534 8.6013C81.0643 8.59978 81.5748 8.62901 82.0823 8.68882L75.3577 15.4174C75.0482 14.7028 74.8976 13.9296 74.9162 13.1511C74.9109 10.4074 76.2979 8.60262 80.5534 8.60262V8.6013ZM80.5746 17.7354C80.0555 17.7376 79.5369 17.7074 79.0217 17.6452L85.8073 10.8583C86.1265 11.5784 86.2793 12.3612 86.2542 13.1484C86.2569 15.8152 84.9891 17.7367 80.5746 17.7367V17.7354Z" fill="#78839E"/>
</svg>
