<svg width="213" height="61" viewBox="0 0 213 61" fill="none" xmlns="http://www.w3.org/2000/svg">
<path fill-rule="evenodd" clip-rule="evenodd" d="M35.2799 4.93854C33.299 2.95852 30.0882 2.95917 28.1082 4.94001L11.5834 21.4716L11.5693 21.4675L11.5171 21.4731C11.5386 21.4834 11.5597 21.4936 11.5804 21.504C8.68158 21.8076 7.45166 22.6787 7.43773 23.7974C7.44264 24.2136 7.61337 24.663 7.92698 25.1295L7.9119 25.1446C10.5472 29.1193 23.6024 34.3625 32.8386 30.81C25.9164 34.2711 9.6144 34.9571 4.82623 28.237C3.78639 29.362 3.35133 30.8403 3.51517 32.2609C4.78007 39.2327 18.9217 41.1347 33.0635 31.0335L36.1237 34.0937C32.3157 38.0059 26.6909 60.7304 35.0488 57.2608C35.2471 57.1262 35.4153 57.0058 35.6442 56.8326L36.0167 56.481C35.9952 56.4863 35.9739 56.4913 35.9527 56.4964L58.337 35.3642C60.4154 33.402 60.4625 30.1108 58.4408 28.09L35.2799 4.93854ZM32.8423 11.8253L33.6073 8.76509L34.3724 11.8253L36.6676 12.5904L34.3724 13.3554L33.6073 16.4156L32.8423 13.3554L30.5471 12.5904L32.8423 11.8253ZM23.3729 21.8152L23.8829 19.775L24.3929 21.8152L25.9231 22.3252L24.3929 22.8352L23.8829 24.8754L23.3729 22.8352L21.8428 22.3252L23.3729 21.8152ZM41.1366 39.0237L40.6266 41.0637L39.0965 41.5739L40.6266 42.0839L41.1366 44.124L41.6466 42.0839L43.1768 41.5739L41.6466 41.0637L41.1366 39.0237Z" fill="#78839E"/>
<path d="M72.7995 16.2784H68.0493V37.7122H81.1993V33.5123H72.7995V16.2784Z" fill="#78839E"/>
<path d="M81.6531 30.4421C81.6531 35.0185 84.7234 38.0598 89.3576 38.0598C93.9631 38.0598 97.0333 35.0185 97.0333 30.4421C97.0333 25.8656 93.9631 22.7954 89.3576 22.7954C84.7234 22.7954 81.6531 25.8656 81.6531 30.4421ZM86.1427 30.4131C86.1427 28.2408 87.417 26.7925 89.3576 26.7925C91.2693 26.7925 92.5438 28.2408 92.5438 30.4131C92.5438 32.6145 91.2693 34.0627 89.3576 34.0627C87.417 34.0627 86.1427 32.6145 86.1427 30.4131Z" fill="#78839E"/>
<path d="M97.7507 30.2104C97.7507 34.584 100.589 37.5383 104.615 37.5383C106.556 37.5383 108.236 36.8432 109.076 35.7136V37.7122C109.076 39.7107 107.83 41.0432 105.629 41.0432C103.659 41.0432 102.298 40.1163 102.211 38.4653H97.6929C98.0983 42.4335 101.169 45.0982 105.368 45.0982C110.321 45.0982 113.45 41.8831 113.45 36.7853V23.2299H109.423L109.192 24.707C108.381 23.5195 106.672 22.7375 104.702 22.7375C100.647 22.7375 97.7507 25.7787 97.7507 30.2104ZM102.269 30.0945C102.269 28.0091 103.66 26.6187 105.426 26.6187C107.483 26.6187 108.989 27.98 108.989 30.0945C108.989 32.2089 107.512 33.6572 105.455 33.6572C103.689 33.6572 102.269 32.2089 102.269 30.0945Z" fill="#78839E"/>
<path d="M114.75 30.4421C114.75 35.0185 117.82 38.0598 122.454 38.0598C127.06 38.0598 130.13 35.0185 130.13 30.4421C130.13 25.8656 127.06 22.7954 122.454 22.7954C117.82 22.7954 114.75 25.8656 114.75 30.4421ZM119.239 30.4131C119.239 28.2408 120.514 26.7925 122.454 26.7925C124.366 26.7925 125.64 28.2408 125.64 30.4131C125.64 32.6145 124.366 34.0627 122.454 34.0627C120.514 34.0627 119.239 32.6145 119.239 30.4131Z" fill="#78839E"/>
<path d="M133.976 20.9706C135.366 20.9706 136.495 19.841 136.495 18.4217C136.495 17.0024 135.366 15.9018 133.976 15.9018C132.556 15.9018 131.427 17.0024 131.427 18.4217C131.427 19.841 132.556 20.9706 133.976 20.9706ZM131.716 37.7122H136.206V23.2299H131.716V37.7122Z" fill="#78839E"/>
<path d="M138.819 44.6637H143.221V36.264C144.062 37.3646 145.973 38.1177 147.973 38.1177C152.288 38.1177 154.895 34.8157 154.778 30.2393C154.663 25.576 151.97 22.7664 147.944 22.7664C145.887 22.7664 143.947 23.6643 143.135 24.9967L142.903 23.2299H138.819V44.6637ZM143.309 30.471C143.309 28.2987 144.757 26.8505 146.843 26.8505C148.957 26.8505 150.289 28.3276 150.289 30.471C150.289 32.6144 148.957 34.0916 146.843 34.0916C144.757 34.0916 143.309 32.6433 143.309 30.471Z" fill="#78839E"/>
<path d="M155.254 33.1357C155.37 36.0612 157.688 38.0887 161.337 38.0887C164.842 38.0887 167.275 36.2349 167.275 33.2516C167.275 31.1083 166 29.689 163.625 29.1097L161.047 28.4724C160.12 28.2407 159.542 28.0091 159.542 27.256C159.542 26.5029 160.149 26.0104 161.047 26.0104C162.061 26.0104 162.727 26.6766 162.698 27.6615H166.725C166.608 24.6492 164.321 22.7664 161.134 22.7664C157.918 22.7664 155.516 24.6781 155.516 27.5745C155.516 29.5152 156.587 31.1083 159.454 31.8614L162.003 32.5274C162.756 32.7302 163.074 33.0778 163.074 33.5703C163.074 34.2943 162.409 34.7578 161.279 34.7578C159.975 34.7578 159.28 34.1495 159.28 33.1357H155.254Z" fill="#78839E"/>
<path d="M174.102 38.0887C175.87 38.0887 177.636 37.2778 178.534 36.0901L178.824 37.7122H183.024V23.2299H178.563V30.7607C178.563 32.933 177.925 34.1206 175.87 34.1206C174.276 34.1206 173.233 33.3964 173.233 30.7028V23.2299H168.772V32.3247C168.772 35.7716 170.685 38.0887 174.102 38.0887Z" fill="#78839E"/>
<path d="M190.097 37.7122V29.8049C190.097 27.3718 191.401 26.6766 192.675 26.6766C194.094 26.6766 195.021 27.5456 195.021 29.3414V37.7122H199.424V29.8049C199.424 27.3429 200.698 26.6477 201.972 26.6477C203.391 26.6477 204.347 27.5166 204.347 29.3414V37.7122H208.693V28.2408C208.693 24.9388 206.955 22.7375 203.218 22.7375C201.133 22.7375 199.424 23.7513 198.67 25.3153C197.802 23.7513 196.295 22.7375 193.891 22.7375C192.299 22.7375 190.821 23.4615 189.953 24.6201L189.779 23.2299H185.607V37.7122H190.097Z" fill="#78839E"/>
<path fill-rule="evenodd" clip-rule="evenodd" d="M60.0609 6.96365C55.2755 6.96365 50.7372 9.08925 47.6735 12.7656L36.7744 25.8446L43.068 16.4041L32.6211 20.8814C31.2944 21.45 30.9615 23.1785 31.9821 24.1992L35.344 27.561L33.6275 29.6208L37.4038 33.397L39.4635 31.6805L42.8254 35.0424C43.8459 36.0629 45.5746 35.7301 46.1431 34.4035L50.6204 23.9566L41.18 30.2502L54.259 19.3509C57.9353 16.2874 60.0609 11.7491 60.0609 6.96365ZM49.6765 17.3484C50.7192 18.3911 52.4098 18.3911 53.4526 17.3484C54.4953 16.3056 54.4953 14.6149 53.4526 13.5722C52.4098 12.5294 50.7192 12.5294 49.6765 13.5722C48.6336 14.6149 48.6336 16.3056 49.6765 17.3484Z" fill="#78839E"/>
<path opacity="0.6" d="M4.70496 28.0612C7.20524 36.6274 22.4065 36.1808 32.8359 30.8114C25.8522 34.3011 9.3317 34.9676 4.70496 28.0612Z" fill="#78839E"/>
<path opacity="0.6" d="M35.0489 57.2608C28.0063 60.1843 30.8919 44.5095 34.2527 37.1629C31.8029 43.6929 29.7117 58.0877 36.0168 56.481L35.6443 56.8326C35.4154 57.0058 35.2471 57.1262 35.0489 57.2608Z" fill="#78839E"/>
</svg>
