<svg width="178" height="47" viewBox="0 0 178 47" fill="none" xmlns="http://www.w3.org/2000/svg">
<path d="M20.4881 9.77497V4.1391H2.71851V42.8609H20.4881V37.225C16.848 37.225 13.3569 35.7789 10.783 33.2049C8.20909 30.631 6.76307 27.1401 6.76307 23.5C6.76307 19.8599 8.20909 16.3688 10.783 13.7949C13.3569 11.221 16.848 9.77497 20.4881 9.77497Z" fill="#78839E"/>
<path d="M20.488 9.77496V37.225C24.1281 37.225 27.6192 35.7789 30.1931 33.2049C32.7671 30.631 34.213 27.1401 34.213 23.5C34.213 19.8599 32.7671 16.3688 30.1931 13.7949C27.6192 11.221 24.1281 9.77496 20.488 9.77496Z" fill="#78839E"/>
<path d="M44.1852 13.2228H48.1634V32.3848H44.1852V13.2228Z" fill="#78839E"/>
<path d="M50.3913 25.8207C50.3913 24.4421 50.8006 23.0945 51.5674 21.9488C52.3341 20.803 53.4237 19.9107 54.6982 19.3849C55.9727 18.8592 57.3746 18.7237 58.7261 18.9956C60.0777 19.2674 61.3181 19.9344 62.2901 20.912C63.2621 21.8897 63.9221 23.1339 64.1863 24.487C64.4503 25.8402 64.3068 27.2412 63.7737 28.5126C63.2406 29.7839 62.3422 30.8685 61.1921 31.6287C60.042 32.3889 58.692 32.7904 57.3134 32.7826C56.3991 32.7898 55.4924 32.6143 54.6468 32.2664C53.8011 31.9185 53.0333 31.4053 52.3886 30.757C51.7439 30.1086 51.2352 29.3378 50.8921 28.4902C50.5492 27.6426 50.3789 26.735 50.3913 25.8207ZM60.3634 25.8207C60.3478 25.2263 60.1572 24.6497 59.8156 24.1632C59.474 23.6765 58.9966 23.3014 58.4429 23.0847C57.8892 22.868 57.284 22.8193 56.7029 22.9449C56.1217 23.0704 55.5904 23.3644 55.1755 23.7903C54.7606 24.2161 54.4804 24.7548 54.37 25.339C54.2597 25.9233 54.324 26.5271 54.555 27.0749C54.786 27.6227 55.1734 28.0904 55.6688 28.4191C56.1641 28.748 56.7453 28.9234 57.3399 28.9237C57.7448 28.9317 58.1469 28.8559 58.5211 28.7013C58.8953 28.5468 59.2336 28.3168 59.5149 28.0256C59.7961 27.7343 60.0143 27.3881 60.1558 27.0088C60.2973 26.6294 60.3589 26.225 60.3369 25.8207H60.3634Z" fill="#78839E"/>
<path d="M79.9764 19.2565V31.735C79.9764 36.1376 76.5285 38.0074 73.0409 38.0074C71.8107 38.1083 70.5768 37.8639 69.4781 37.3016C68.3793 36.7394 67.4593 35.8815 66.8216 34.8248L70.1766 32.8887C70.4484 33.4369 70.8809 33.8891 71.4163 34.1852C71.9518 34.4813 72.5647 34.6073 73.1735 34.5463C73.5614 34.594 73.955 34.5556 74.3262 34.4336C74.6975 34.3114 75.0371 34.1089 75.3209 33.8403C75.6048 33.5716 75.8257 33.2437 75.968 32.8796C76.1103 32.5158 76.1704 32.1248 76.144 31.735V30.5282C75.681 31.0896 75.0936 31.5351 74.4284 31.8298C73.7631 32.1244 73.0384 32.26 72.3116 32.2256C70.5531 32.2256 68.8667 31.527 67.6232 30.2836C66.3797 29.0402 65.6812 27.3537 65.6812 25.5952C65.6812 23.8367 66.3797 22.1503 67.6232 20.9068C68.8667 19.6633 70.5531 18.9648 72.3116 18.9648C73.0384 18.9304 73.7631 19.0659 74.4284 19.3606C75.0936 19.6552 75.681 20.1008 76.144 20.6621V19.3361L79.9764 19.2565ZM76.144 25.5554C76.1704 24.921 76.0065 24.2931 75.6732 23.7526C75.34 23.2121 74.8528 22.7836 74.2739 22.5222C73.6952 22.2609 73.0517 22.1787 72.4258 22.2861C71.8 22.3935 71.2205 22.6856 70.7621 23.125C70.3036 23.5643 69.9871 24.1308 69.8532 24.7515C69.7192 25.3723 69.774 26.0187 70.0104 26.6081C70.247 27.1974 70.6544 27.7025 71.1802 28.0584C71.7061 28.4143 72.3264 28.6049 72.9614 28.6054C73.3758 28.6352 73.7918 28.5778 74.1824 28.437C74.5732 28.296 74.9302 28.0747 75.23 27.7872C75.53 27.4998 75.7663 27.1527 75.9237 26.7682C76.0811 26.3838 76.1562 25.9706 76.144 25.5554Z" fill="#78839E"/>
<path d="M82.2174 25.8206C82.2174 24.4431 82.6261 23.0966 83.3916 21.9514C84.1572 20.8062 85.2452 19.9138 86.5181 19.3874C87.7911 18.8608 89.1915 18.7237 90.5424 18.9934C91.8933 19.2631 93.1337 19.9275 94.1069 20.9024C95.08 21.8775 95.742 23.1193 96.0091 24.4705C96.2763 25.8219 96.1365 27.2222 95.6075 28.494C95.0786 29.766 94.1841 30.8523 93.0376 31.6158C91.8909 32.3792 90.5436 32.7852 89.1661 32.7826C88.25 32.7915 87.3413 32.6174 86.4934 32.2704C85.6455 31.9235 84.8753 31.4109 84.2281 30.7624C83.5809 30.114 83.0697 29.3428 82.7243 28.4943C82.3792 27.6457 82.2068 26.7367 82.2174 25.8206ZM92.1896 25.8206C92.1739 25.2257 91.983 24.6486 91.6408 24.1617C91.2987 23.6749 90.8204 23.2997 90.2659 23.0834C89.7115 22.8672 89.1056 22.8193 88.5241 22.9459C87.9426 23.0724 87.4114 23.3679 86.997 23.795C86.5826 24.2222 86.3035 24.7621 86.1947 25.3472C86.0858 25.9323 86.152 26.5364 86.385 27.084C86.618 27.6317 87.0075 28.0983 87.5046 28.4256C88.0016 28.7527 88.5842 28.9261 89.1793 28.9237C89.5842 28.9316 89.9863 28.8559 90.3605 28.7013C90.7347 28.5468 91.073 28.3167 91.3543 28.0255C91.6355 27.7343 91.8537 27.3881 91.9951 27.0088C92.1366 26.6294 92.1983 26.2249 92.1763 25.8206H92.1896Z" fill="#78839E"/>
<path d="M97.958 15.7424C97.958 15.2756 98.0964 14.8191 98.3558 14.431C98.6152 14.0428 98.9839 13.7403 99.4151 13.5616C99.8465 13.383 100.321 13.3362 100.779 13.4273C101.237 13.5184 101.657 13.7432 101.988 14.0733C102.318 14.4034 102.542 14.824 102.634 15.2818C102.725 15.7397 102.678 16.2143 102.499 16.6457C102.321 17.0769 102.018 17.4456 101.63 17.705C101.242 17.9644 100.785 18.1028 100.318 18.1028C99.6945 18.0959 99.0982 17.845 98.657 17.4038C98.2158 16.9626 97.9649 16.3663 97.958 15.7424ZM98.3426 19.2565H102.321V32.3848H98.3426V19.2565Z" fill="#78839E"/>
<path d="M119.348 25.8206C119.392 26.6937 119.264 27.5671 118.97 28.3903C118.675 29.2135 118.221 29.9705 117.633 30.6175C117.045 31.2646 116.335 31.7889 115.544 32.1605C114.753 32.5321 113.896 32.7434 113.022 32.7826C112.281 32.8319 111.538 32.7132 110.85 32.4354C110.161 32.1575 109.544 31.7277 109.044 31.178V37.6626H105.066V19.2565H109.044V20.4897C109.544 19.9417 110.162 19.5139 110.851 19.2383C111.54 18.9626 112.282 18.8465 113.022 18.8984C113.892 18.9376 114.746 19.1477 115.534 19.5168C116.323 19.8858 117.031 20.4067 117.619 21.0495C118.206 21.6922 118.661 22.4444 118.958 23.2631C119.254 24.0817 119.387 24.9507 119.348 25.8206ZM115.369 25.8206C115.354 25.2046 115.157 24.6071 114.803 24.1028C114.449 23.5985 113.954 23.2097 113.38 22.9854C112.807 22.7611 112.179 22.7112 111.577 22.8418C110.975 22.9724 110.425 23.278 109.996 23.72C109.567 24.1619 109.277 24.7208 109.164 25.3265C109.051 25.9321 109.12 26.5577 109.361 27.1247C109.602 27.6916 110.005 28.1748 110.519 28.5138C111.034 28.8527 111.637 29.0321 112.253 29.0297C112.675 29.0476 113.096 28.9762 113.489 28.82C113.881 28.6637 114.236 28.4264 114.53 28.1234C114.825 27.8204 115.051 27.4585 115.196 27.0617C115.341 26.6648 115.4 26.2419 115.369 25.8206Z" fill="#78839E"/>
<path d="M131.455 28.4463C131.455 31.4697 128.803 32.7561 125.992 32.7561C124.845 32.8592 123.694 32.6161 122.687 32.0583C121.68 31.5004 120.863 30.6533 120.342 29.6265L123.764 27.6904C123.899 28.1635 124.193 28.5758 124.596 28.8583C124.999 29.1407 125.487 29.2761 125.978 29.2419C126.92 29.2419 127.397 28.9502 127.397 28.4197C127.397 26.9743 120.939 27.7434 120.939 23.195C120.939 20.3306 123.353 18.8984 126.084 18.8984C127.123 18.8519 128.154 19.0875 129.07 19.5802C129.985 20.0728 130.75 20.8042 131.283 21.6965L127.861 23.5C127.71 23.1578 127.463 22.8669 127.15 22.6621C126.837 22.4574 126.472 22.3477 126.098 22.3463C125.408 22.3463 124.997 22.6115 124.997 23.0756C124.997 24.5874 131.455 23.5928 131.455 28.4463Z" fill="#78839E"/>
<path d="M145.87 19.2565V32.3848H141.891V31.1515C141.439 31.6975 140.865 32.1294 140.216 32.4127C139.567 32.6961 138.86 32.8228 138.152 32.7826C135.5 32.7826 133.232 30.8863 133.232 27.3456V19.2565H137.21V26.7489C137.178 27.0621 137.215 27.3784 137.319 27.676C137.422 27.9734 137.588 28.245 137.806 28.472C138.024 28.6989 138.29 28.8758 138.583 28.9905C138.876 29.1051 139.19 29.1547 139.504 29.1358C140.936 29.1358 141.944 28.2872 141.944 26.4837V19.2565H145.87Z" fill="#78839E"/>
<path d="M168.413 24.3222V32.3848H164.435V24.667C164.435 23.3409 163.812 22.5187 162.552 22.5187C161.292 22.5187 160.496 23.4337 160.496 24.9852V32.3848H156.518V24.667C156.518 23.3409 155.895 22.5187 154.635 22.5187C153.375 22.5187 152.58 23.4337 152.58 24.9852V32.3848H148.601V19.2565H152.58V20.4633C152.992 19.9302 153.529 19.5079 154.146 19.2348C154.761 18.9616 155.436 18.846 156.107 18.8985C156.779 18.8633 157.45 19.0039 158.052 19.3061C158.654 19.6083 159.168 20.062 159.542 20.6224C159.979 20.0368 160.557 19.5716 161.223 19.2702C161.887 18.9686 162.619 18.8408 163.347 18.8985C166.45 18.8985 168.413 21.0467 168.413 24.3222Z" fill="#78839E"/>
<path d="M171.755 19.1769C173.366 19.1769 174.672 17.8707 174.672 16.2596C174.672 14.6484 173.366 13.3422 171.755 13.3422C170.143 13.3422 168.837 14.6484 168.837 16.2596C168.837 17.8707 170.143 19.1769 171.755 19.1769Z" fill="#78839E"/>
</svg>
