<svg width="165" height="43" viewBox="0 0 165 43" fill="none" xmlns="http://www.w3.org/2000/svg">
<path d="M49.4146 13.6363H53.3928V29.7218H49.4146V13.6363ZM54.9709 23.6483C54.9709 19.67 57.4109 17.2963 61.1769 17.2963C64.943 17.2963 67.383 19.67 67.383 23.6483C67.383 27.6266 64.9961 30.0135 61.1769 30.0135C57.3578 30.0135 54.9709 27.6929 54.9709 23.6483ZM63.3915 23.6483C63.3915 21.4602 62.5296 20.1739 61.1769 20.1739C59.8243 20.1739 58.9756 21.5 58.9756 23.6483C58.9756 25.7966 59.8111 27.0961 61.1769 27.0961C62.5428 27.0961 63.3915 25.8761 63.3915 23.6616V23.6483ZM68.8815 30.5042H72.7006C72.8824 30.908 73.1897 31.2423 73.5768 31.4574C73.9639 31.6723 74.4101 31.7567 74.8489 31.6976C76.3606 31.6976 77.1563 30.8755 77.1563 29.682V27.4542H77.0767C76.7598 28.137 76.2454 28.709 75.6001 29.0968C74.9549 29.4844 74.2081 29.6698 73.4565 29.6289C70.5524 29.6289 68.6296 27.4144 68.6296 23.6085C68.6296 19.8026 70.4596 17.4024 73.5096 17.4024C74.2848 17.3721 75.0507 17.5793 75.7049 17.9964C76.359 18.4136 76.8701 19.0206 77.1696 19.7363V17.5218H81.1478V29.5892C81.1478 32.4933 78.5885 34.2968 74.8091 34.2968C71.295 34.2968 69.1069 32.7187 68.8815 30.5174V30.5042ZM77.1696 23.635C77.1696 21.6989 76.2811 20.4789 74.8754 20.4789C73.4698 20.4789 72.6078 21.6857 72.6078 23.635C72.6078 25.5844 73.4565 26.685 74.8754 26.685C76.2943 26.685 77.1696 25.6109 77.1696 23.6483V23.635ZM82.6463 23.635C82.6463 19.6568 85.0863 17.2831 88.8524 17.2831C92.6185 17.2831 95.0717 19.6568 95.0717 23.635C95.0717 27.6133 92.6848 30.0002 88.8524 30.0002C85.02 30.0002 82.6463 27.6929 82.6463 23.6483V23.635ZM91.0669 23.635C91.0669 21.447 90.205 20.1607 88.8524 20.1607C87.4998 20.1607 86.7174 21.5 86.7174 23.6616C86.7174 25.8231 87.5528 27.1094 88.9054 27.1094C90.258 27.1094 91.0669 25.8761 91.0669 23.6616V23.635ZM96.5835 14.6309C96.573 14.2292 96.6821 13.8335 96.8968 13.4939C97.1116 13.1543 97.4224 12.8861 97.7897 12.7233C98.157 12.5605 98.5644 12.5105 98.9602 12.5795C99.356 12.6485 99.7224 12.8335 100.013 13.1111C100.304 13.3886 100.505 13.7461 100.592 14.1384C100.679 14.5306 100.648 14.9399 100.502 15.3144C100.357 15.6887 100.103 16.0115 99.7735 16.2416C99.4442 16.4716 99.0538 16.5988 98.6522 16.6068C98.3859 16.6251 98.1187 16.5881 97.8674 16.4982C97.616 16.4083 97.386 16.2674 97.1917 16.0843C96.9975 15.9013 96.8431 15.68 96.7385 15.4344C96.6337 15.1889 96.581 14.9244 96.5835 14.6574V14.6309ZM96.5835 17.5483H100.562V29.7218H96.5835V17.5483ZM115.003 23.635C115.003 27.6133 113.239 29.8809 110.216 29.8809C109.44 29.9306 108.668 29.7411 108.004 29.338C107.34 28.9347 106.816 28.3373 106.503 27.6266H106.423V33.6205H102.445V17.5218H106.423V19.6966H106.503C106.801 18.974 107.316 18.361 107.975 17.9411C108.635 17.5211 109.408 17.3145 110.189 17.3494C113.239 17.4024 115.056 19.6833 115.056 23.6616L115.003 23.635ZM111.025 23.635C111.025 21.6989 110.136 20.4657 108.744 20.4657C107.351 20.4657 106.463 21.7122 106.45 23.635C106.436 25.5579 107.351 26.7911 108.744 26.7911C110.136 26.7911 111.025 25.5844 111.025 23.6616V23.635ZM121.832 17.2698C125.134 17.2698 127.137 18.8346 127.229 21.3409H123.609C123.609 20.4789 122.893 19.9352 121.792 19.9352C120.692 19.9352 120.201 20.3596 120.201 20.9829C120.201 21.6061 120.639 21.805 121.527 21.9907L124.073 22.5079C126.5 23.025 127.534 24.0063 127.534 25.8496C127.534 28.3692 125.24 29.987 121.859 29.987C118.477 29.987 116.263 28.3692 116.09 25.8894H119.923C120.042 26.7911 120.758 27.3216 121.925 27.3216C123.092 27.3216 123.622 26.937 123.622 26.3005C123.622 25.6639 123.251 25.5313 122.296 25.3324L120.002 24.8418C117.628 24.3511 116.382 23.0913 116.382 21.2348C116.408 18.8479 118.543 17.2963 121.832 17.2963V17.2698ZM140.808 29.6952H136.976V27.4276H136.897C136.686 28.1889 136.222 28.8553 135.58 29.3161C134.938 29.7768 134.158 30.0042 133.369 29.9605C132.765 29.9948 132.16 29.8991 131.596 29.6796C131.031 29.4601 130.521 29.1222 130.099 28.6885C129.676 28.2549 129.352 27.7354 129.147 27.1656C128.943 26.5958 128.863 25.9887 128.913 25.3855V17.5218H132.892V24.4705C132.892 25.9159 133.634 26.685 134.868 26.685C135.157 26.6856 135.443 26.6244 135.707 26.5055C135.97 26.3865 136.206 26.2125 136.397 25.9953C136.586 25.778 136.729 25.5224 136.813 25.2458C136.897 24.9691 136.922 24.6776 136.883 24.3909V17.5218H140.862L140.808 29.6952ZM142.731 17.5218H146.577V19.8689H146.657C146.867 19.1177 147.322 18.4576 147.948 17.9921C148.574 17.5267 149.338 17.2819 150.118 17.2963C150.912 17.2328 151.7 17.4703 152.327 17.9618C152.953 18.4532 153.372 19.1624 153.499 19.9485H153.579C153.819 19.154 154.317 18.4624 154.995 17.9822C155.671 17.502 156.489 17.2607 157.318 17.2963C157.859 17.2782 158.398 17.374 158.899 17.5777C159.402 17.7813 159.854 18.0883 160.229 18.4784C160.604 18.8687 160.893 19.3335 161.078 19.8426C161.261 20.3516 161.336 20.8939 161.297 21.4337V29.7218H157.318V22.4946C157.318 21.1685 156.722 20.5585 155.608 20.5585C155.36 20.5564 155.113 20.6076 154.886 20.7086C154.659 20.8097 154.457 20.9582 154.292 21.1442C154.128 21.3303 154.004 21.5494 153.931 21.7869C153.858 22.0245 153.839 22.2749 153.87 22.5211V29.7218H150.091V22.4416C150.091 21.2215 149.494 20.5585 148.407 20.5585C148.156 20.5586 147.907 20.6119 147.679 20.715C147.45 20.8182 147.244 20.9687 147.078 21.1566C146.911 21.3445 146.786 21.5657 146.711 21.8056C146.637 22.0453 146.613 22.2982 146.643 22.5476V29.7218H142.665L142.731 17.5218Z" fill="#78839E"/>
<path d="M38.2887 14.3657C37.6138 12.8226 36.7207 11.3846 35.6365 10.0957C34.0339 8.13354 32.0339 6.53302 29.7681 5.39949C27.5024 4.26598 25.0222 3.62515 22.491 3.51918C19.9597 3.41321 17.4347 3.84451 15.0821 4.78471C12.7296 5.72489 10.6028 7.15265 8.84183 8.974C7.08081 10.7953 5.72549 12.969 4.86505 15.3519C4.00462 17.7348 3.65858 20.2729 3.84972 22.7991C4.04088 25.3254 4.76486 27.7825 5.97403 30.0088C7.18321 32.2351 8.85017 34.1801 10.8652 35.7157C12.1581 36.7207 13.5868 37.5377 15.1087 38.1424C17.2423 39.0169 19.526 39.4672 21.8319 39.4685C26.5918 39.458 31.1532 37.5607 34.5166 34.1924C37.8798 30.8242 39.7704 26.2599 39.7739 21.5C39.7773 19.0448 39.2717 16.6155 38.2887 14.3657ZM21.8187 7.16503C23.8895 7.16482 25.9352 7.61741 27.8126 8.49112C27.3548 8.68893 26.8734 8.8271 26.3804 8.90222C24.7581 9.13706 23.2552 9.89025 22.0961 11.0494C20.9369 12.2085 20.1837 13.7114 19.9489 15.3337C19.8458 16.2436 19.432 17.09 18.7773 17.7302C18.1226 18.3705 17.2671 18.7651 16.3552 18.8479C14.7328 19.0827 13.2299 19.8359 12.0708 20.9951C10.9117 22.1542 10.1585 23.6571 9.92367 25.2794C9.84415 26.1445 9.47504 26.9576 8.87606 27.5868C7.84257 25.4031 7.37831 22.9934 7.52646 20.582C7.67461 18.1706 8.43036 15.8359 9.72339 13.7951C11.0164 11.7544 12.8047 10.0738 14.9218 8.90996C17.0389 7.7461 19.416 7.13672 21.8319 7.13851L21.8187 7.16503ZM10.8519 30.7827C11.0111 30.6368 11.1702 30.5042 11.3293 30.345C12.5091 29.2013 13.2663 27.6914 13.4776 26.0618C13.5632 25.1457 13.9722 24.2901 14.6313 23.6483C15.2655 22.9882 16.1191 22.5825 17.0315 22.5079C18.6538 22.273 20.1567 21.5198 21.3158 20.3607C22.4749 19.2015 23.2281 17.6987 23.463 16.0764C23.5204 15.1183 23.9315 14.2156 24.6167 13.5435C25.2666 12.8962 26.1283 12.5053 27.0434 12.4429C28.5338 12.2378 29.9238 11.5752 31.0217 10.5466C32.2718 11.5837 33.3308 12.8313 34.1513 14.2331C34.1009 14.3011 34.0431 14.3634 33.9789 14.4187C33.3459 15.0847 32.4934 15.4992 31.5787 15.5857C29.9546 15.8164 28.4495 16.5683 27.2896 17.7281C26.1298 18.8881 25.3779 20.3932 25.1471 22.0172C25.0536 22.9301 24.6475 23.7826 23.9974 24.4303C23.3472 25.0781 22.4932 25.4811 21.58 25.5711C19.9528 25.8041 18.4444 26.5559 17.2785 27.7145C16.1128 28.8732 15.3517 30.377 15.1087 32.0027C15.0373 32.6507 14.8147 33.273 14.4589 33.8194C13.0983 33.0115 11.8798 31.9857 10.8519 30.7827ZM21.8187 35.9014C20.4731 35.9028 19.1339 35.7153 17.8404 35.3444C18.2829 34.5196 18.5705 33.6206 18.6891 32.6922C18.782 31.7813 19.1864 30.9304 19.8338 30.283C20.4812 29.6356 21.3321 29.2313 22.243 29.1383C23.8677 28.9061 25.3736 28.1541 26.5354 26.9947C27.6971 25.8354 28.4523 24.331 28.6878 22.7068C28.7807 21.7959 29.1851 20.9449 29.8325 20.2976C30.4799 19.6502 31.3308 19.2458 32.2417 19.1529C33.4643 18.9939 34.6297 18.5386 35.6365 17.8268C36.1956 19.9457 36.2617 22.1645 35.8301 24.3131C35.3984 26.4616 34.4803 28.4828 33.1462 30.2215C31.8122 31.96 30.0977 33.37 28.134 34.3431C26.1705 35.3162 24.0101 35.8266 21.8187 35.835V35.9014Z" fill="#78839E"/>
</svg>
